name Walk5.mot
datacolumns 19
datarows 15
range 3.60100000 3.61500000
endheader

                time	   L_ground_force_vx	   L_ground_force_vy	   L_ground_force_vz	   L_ground_force_px	   L_ground_force_py	   L_ground_force_pz	   R_ground_force_vx	   R_ground_force_vy	   R_ground_force_vz	   R_ground_force_px	   R_ground_force_py	   R_ground_force_pz	   L_ground_torque_x	   L_ground_torque_y	   L_ground_torque_z	   R_ground_torque_x	   R_ground_torque_y	   R_ground_torque_z	
          3.60100000	          0.00000000	          0.00000000	          0.00000000	          0.00000000	          0.00000000	          0.00000000	         21.55754914	        156.29267481	          7.48199765	          0.50072886	          0.00000000	          0.13668014	          0.00000000	          0.00000000	          0.00000000	          0.00000000	         -4.64270702	          0.00000000	
          3.60200000	          0.00000000	          0.00000000	          0.00000000	          0.00000000	          0.00000000	          0.00000000	         20.29467600	        151.34942857	          7.00263933	          0.50156285	          0.00000000	          0.13671142	          0.00000000	          0.00000000	          0.00000000	          0.00000000	         -4.39747973	          0.00000000	
          3.60300000	          0.00000000	          0.00000000	          0.00000000	          0.00000000	          0.00000000	          0.00000000	         19.12262248	        146.33437995	          6.55015936	          0.50224871	          0.00000000	          0.13669067	          0.00000000	          0.00000000	          0.00000000	          0.00000000	         -4.17618343	          0.00000000	
          3.60400000	          0.00000000	          0.00000000	          0.00000000	          0.00000000	          0.00000000	          0.00000000	         18.03085644	        141.21867110	          6.11457399	          0.50281865	          0.00000000	          0.13669222	          0.00000000	          0.00000000	          0.00000000	          0.00000000	         -3.97978638	          0.00000000	
          3.60500000	          0.00000000	          0.00000000	          0.00000000	          0.00000000	          0.00000000	          0.00000000	         17.01681511	        136.01806692	          5.69509938	          0.50338291	          0.00000000	          0.13671896	          0.00000000	          0.00000000	          0.00000000	          0.00000000	         -3.80545537	          0.00000000	
          3.60600000	          0.00000000	          0.00000000	          0.00000000	          0.00000000	          0.00000000	          0.00000000	         16.08443365	        130.77439032	          5.29568770	          0.50402481	          0.00000000	          0.13672235	          0.00000000	          0.00000000	          0.00000000	          0.00000000	         -3.64822777	          0.00000000	
          3.60700000	          0.00000000	          0.00000000	          0.00000000	          0.00000000	          0.00000000	          0.00000000	         15.23250638	        125.53917493	          4.92370281	          0.50474756	          0.00000000	          0.13668583	          0.00000000	          0.00000000	          0.00000000	          0.00000000	         -3.50434412	          0.00000000	
          3.60800000	          0.00000000	          0.00000000	          0.00000000	          0.00000000	          0.00000000	          0.00000000	         14.44189686	        120.36580064	          4.59206962	          0.50545396	          0.00000000	          0.13666016	          0.00000000	          0.00000000	          0.00000000	          0.00000000	         -3.37119745	          0.00000000	
          3.60900000	          0.00000000	          0.00000000	          0.00000000	          0.00000000	          0.00000000	          0.00000000	         13.68259025	        115.30171655	          4.30969719	          0.50603771	          0.00000000	          0.13673957	          0.00000000	          0.00000000	          0.00000000	          0.00000000	         -3.24488404	          0.00000000	
          3.61000000	          0.00000000	          0.00000000	          0.00000000	          0.00000000	          0.00000000	          0.00000000	         12.93557142	        110.37550920	          4.06879583	          0.50656751	          0.00000000	          0.13700053	          0.00000000	          0.00000000	          0.00000000	          0.00000000	         -3.11827457	          0.00000000	
          3.61100000	          0.00000000	          0.00000000	          0.00000000	          0.00000000	          0.00000000	          0.00000000	         12.20044249	        105.59424604	          3.85057358	          0.50726187	          0.00000000	          0.13746615	          0.00000000	          0.00000000	          0.00000000	          0.00000000	         -2.98478223	          0.00000000	
          3.61200000	          0.00000000	          0.00000000	          0.00000000	          0.00000000	          0.00000000	          0.00000000	         11.48277790	        100.96371679	          3.64287091	          0.50820466	          0.00000000	          0.13814783	          0.00000000	          0.00000000	          0.00000000	          0.00000000	         -2.84480672	          0.00000000	
          3.61300000	          0.00000000	          0.00000000	          0.00000000	          0.00000000	          0.00000000	          0.00000000	         10.78251217	         96.49193989	          3.43949925	          0.50917011	          0.00000000	          0.13903254	          0.00000000	          0.00000000	          0.00000000	          0.00000000	         -2.70717276	          0.00000000	
          3.61400000	          0.00000000	          0.00000000	          0.00000000	          0.00000000	          0.00000000	          0.00000000	         10.09711281	         92.15020216	          3.22348621	          0.50985888	          0.00000000	          0.13993084	          0.00000000	          0.00000000	          0.00000000	          0.00000000	         -2.58373898	          0.00000000	
          3.61500000	          0.00000000	          0.00000000	          0.00000000	          0.00000000	          0.00000000	          0.00000000	          9.43195731	         87.86162719	          2.97518855	          0.51027947	          0.00000000	          0.14046874	          0.00000000	          0.00000000	          0.00000000	          0.00000000	         -2.47875671	          0.00000000	
